<?xml version="1.0" encoding="UTF-8"?><svg id="Groupe_3" xmlns="http://www.w3.org/2000/svg" viewBox="0 0 147.7 174.26"><defs><style>.cls-1{fill:#e02c13;}.cls-1,.cls-2,.cls-3,.cls-4,.cls-5{stroke-width:0px;}.cls-1,.cls-3,.cls-4{fill-rule:evenodd;}.cls-2,.cls-4{fill:#fff;}.cls-3{fill:#da0016;}.cls-5{fill:#e30513;}</style></defs><g id="Groupe_6"><path id="Tracé_12" class="cls-3" d="m31.25,12.11v17.89l20.52,23.93,2.92-3.4h0l2.61-3.04,2.15-2.5L31.25,12.12h0Z"/><path id="Tracé_13" class="cls-3" d="m95.77,54.01l20.52-23.92V12.19l-28.18,32.87,7.67,8.94h0Z"/><path id="Tracé_14" class="cls-1" d="m56.03,74.15h0l3.28-3.81-7.67-8.95-3.27,3.82-17.15-20.12v18.27l17.15,19.75,5.87-6.84.17-.2,1.63-1.9h0Zm42.66-8.95l-3.28-3.82h0l-1.88,2.19-2.91,3.4-2.88,3.36,10.95,12.77,17.62-20.57v-17.87l-17.62,20.53h0Z"/><path id="Tracé_15" class="cls-4" d="m94.82,86.74c0,.53-.18,1.04-.52,1.45l-15.09,17.61s0,0-.02.02c-2.36,3.06-6.75,3.63-9.81,1.27-.48-.37-.9-.79-1.27-1.27h-.01l-8.68-10.11-6.21-7.24h-.01l-.37-.42s-.02-.02-.02-.03c0,0,0,0-.01,0,0,0,0-.01-.01-.01h0c-.22-.37-.34-.79-.35-1.22,0-.44.13-.88.38-1.25,0-.01.01-.01.01-.02s.01-.01.01-.02l.31-.36,7.64-8.92s.01-.01.01-.02.01-.01.01-.02l.31-.36s.01-.01.02-.01c.41-.39.96-.61,1.53-.61.53,0,1.05.19,1.46.53.03.02.07.05.09.07l.34.39s.01.01.02.02l5.77,6.73-3.27,3.82,6.54,7.63,6.54-7.63-17.48-20.4-6.22-7.26h-.01l-.37-.42s-.02-.02-.02-.03c0,0,0-.01-.01-.01h0c-.23-.37-.36-.79-.36-1.23,0-.44.13-.88.38-1.25,0-.01.01-.01.01-.02l.33-.38s.01-.01.02-.01l1.13-1.33,9.61-11.21,4.58-5.33s.01-.01.01-.02l.31-.36c.42-.4.97-.62,1.55-.62.57,0,1.13.22,1.55.61l.34.39s.01.01.02.02l5.77,6.73,3.28,3.82,6.16,7.19.5.58c.21.35.31.75.31,1.15,0,.53-.18,1.04-.52,1.44l-.66.78-2.61,3.05-1.46,1.7c-.78.96-2.2,1.11-3.16.32-.03-.03-.06-.05-.1-.08l-.37-.42s-.02-.02-.02-.03l-2-2.33-7.04-8.2-2.05,2.4-1.22,1.41,23.72,27.68.34.39s.01.01.02.02c.02.03.04.06.05.09.21.35.31.74.32,1.15Z"/></g><g id="Groupe_2"><path id="Tracé_1" class="cls-5" d="m78.56,162.1c-.24,0-.48-.1-.64-.28l-4.14-4.5c-.31-.34-.31-.85,0-1.19l4.14-4.5c.33-.35.88-.38,1.24-.05s.38.88.05,1.24h0l-3.59,3.91,3.59,3.91c.33.36.3.91-.05,1.24-.16.15-.37.23-.59.22Z"/><path id="Tracé_2" class="cls-5" d="m124.5,162.1c.24,0,.48-.1.64-.28l4.13-4.5c.31-.34.31-.85,0-1.19l-4.13-4.5c-.33-.35-.88-.38-1.24-.05-.35.33-.38.88-.05,1.24h0l3.59,3.91-3.59,3.91c-.33.36-.3.91.05,1.24.16.15.37.23.59.22Z"/><path id="Tracé_3" class="cls-2" d="m25.88,162.1h-7.01c-.48,0-.88-.39-.88-.88s.39-.88.88-.88h7.01c.62,0,1.12-.5,1.13-1.13v-.5c0-.62-.5-1.12-1.13-1.13h-5c-1.59,0-2.88-1.29-2.88-2.88h0v-.49c0-1.59,1.29-2.88,2.88-2.88h7.01c.48,0,.88.39.88.88s-.39.88-.88.88h-7.01c-.62,0-1.12.5-1.13,1.13v.5c0,.62.5,1.12,1.13,1.13h5c1.59,0,2.88,1.29,2.88,2.88h0v.5c0,1.59-1.29,2.88-2.88,2.88Z"/><path id="Tracé_4" class="cls-2" d="m66.89,162.1h-5c-2.69,0-4.88-2.19-4.88-4.88v-1c0-2.69,2.19-4.88,4.88-4.88h5c.48,0,.88.39.88.88s-.39.88-.88.88h-5c-1.73,0-3.13,1.4-3.13,3.13v1c0,1.73,1.4,3.13,3.13,3.13h5c.48,0,.88.39.88.88s-.39.88-.88.88h0Z"/><path id="Tracé_5" class="cls-2" d="m41.33,151.34h-9.01c-.48,0-.88.39-.88.88s.39.88.88.88h3.63v8.13c0,.48.39.88.88.88s.88-.39.88-.88h0v-8.13h3.63c.48,0,.88-.39.88-.88s-.39-.88-.88-.88h0Z"/><path id="Tracé_6" class="cls-2" d="m92.01,151.34h-9.01c-.48,0-.88.39-.88.88s.39.88.88.88h3.63v8.13c0,.48.39.88.88.88s.88-.39.88-.88h0v-8.13h3.63c.48,0,.88-.39.88-.88s-.39-.88-.88-.88h0Z"/><path id="Tracé_7" class="cls-2" d="m95.1,162.1c-.48,0-.88-.39-.88-.88,0-.08.01-.16.03-.23l2.5-9.01c.13-.47.61-.74,1.08-.61s.74.61.61,1.08l-2.5,9.01c-.11.38-.45.64-.84.64Z"/><path id="Tracé_8" class="cls-2" d="m71.33,162.1c-.48,0-.88-.39-.88-.88h0v-9.01c0-.48.39-.88.87-.88.48,0,.88.39.88.87h0v9.02c0,.48-.39.88-.88.88Z"/><g id="Groupe_1"><path id="Tracé_10" class="cls-2" d="m53.44,162.1c-.48,0-.88-.39-.88-.88h0v-4.5c0-2-1.62-3.63-3.63-3.63s-3.63,1.62-3.63,3.63h0v4.5c0,.48-.4.87-.88.87-.48,0-.87-.39-.87-.87v-4.5c0-2.97,2.41-5.38,5.38-5.38s5.38,2.41,5.38,5.38h0v4.5c0,.48-.39.88-.88.88h0Z"/><path id="Tracé_11" class="cls-2" d="m49.88,157.66c0-.5-.41-.91-.91-.91s-.91.41-.91.91.41.91.91.91.91-.41.91-.91h0Z"/></g><path class="cls-2" d="m115.56,151.34c-1.88,0-3.54.98-4.51,2.45-.96-1.47-2.62-2.45-4.51-2.45-2.97,0-5.38,2.41-5.38,5.38v4.51c0,.48.39.88.88.88s.88-.39.88-.88v-4.51c0-2,1.63-3.63,3.63-3.63s3.63,1.63,3.63,3.63v4.51c0,.48.39.88.88.88s.88-.39.88-.88v-4.51c0-2,1.63-3.63,3.63-3.63s3.63,1.63,3.63,3.63v4.51c0,.48.39.88.88.88s.88-.39.88-.88v-4.51c0-2.97-2.41-5.38-5.38-5.38Z"/></g><g id="Groupe_4"><path id="Tracé_16" class="cls-2" d="m31.05,119.38v2.66h-7.64c-1.6,0-2.3.75-2.3,1.92,0,1.24.79,1.81,2.33,1.81h7.5v2.42h-7.57c-1.54,0-2.33.61-2.33,1.85s.75,1.92,2.3,1.92h7.73v2.66h-7.73c-3.62,0-5.09-1.78-5.09-4.16-.11-1.52.78-2.94,2.19-3.5-1.39-.55-2.26-1.94-2.15-3.43,0-2.44,1.51-4.16,5.11-4.16h7.64Z"/><path id="Tracé_17" class="cls-2" d="m42.97,126.32v2.3h-8.07v-2.3h8.07Z"/><path id="Tracé_18" class="cls-2" d="m58.83,119.38v2.66h-7.82c-1.38,0-1.99.75-1.99,1.81,0,.93.47,1.81,2.26,1.81h3.57c4.16,0,5.13,2.3,5.13,4.49,0,2.58-1.38,4.47-4.86,4.47h-8.5v-2.66h8.59c1.45,0,2.1-.79,2.1-1.9,0-.99-.52-1.9-2.39-1.9h-3.55c-4.07,0-5.02-2.28-5.02-4.41,0-2.53,1.36-4.38,4.75-4.38h7.73Z"/><path id="Tracé_19" class="cls-2" d="m72.29,119.38c3.44,0,4.9,2.12,4.9,4.56.15,2.5-1.75,4.65-4.25,4.8-.22.01-.44.01-.66,0h-4.74c-.18-.03-.36.1-.38.28,0,.03,0,.07,0,.1v5.51h-2.67v-6.03c0-1.72.72-2.42,2.4-2.42h5.49c1.08.09,2.03-.72,2.12-1.8,0-.1,0-.2,0-.3.07-1.06-.73-1.97-1.78-2.04-.11,0-.21,0-.32,0h-7.93v-2.66h7.82Z"/><path id="Tracé_20" class="cls-2" d="m89.84,119.38c4.43,0,6.89,2.53,6.89,7.66s-2.44,7.59-6.89,7.59h-2.08c-4.45,0-6.89-2.49-6.89-7.59s2.46-7.66,6.89-7.66h2.08Zm-2.08,2.66c-2.94,0-4.23,1.49-4.23,4.99s1.26,4.93,4.23,4.93h2.08c2.94,0,4.2-1.45,4.2-4.95s-1.27-4.97-4.2-4.97h-2.08Z"/><path id="Tracé_21" class="cls-2" d="m109.67,119.38c3.43,0,4.9,2.12,4.9,4.56.13,2.1-1.21,4-3.23,4.59l3.55,6.1h-2.96l-3.48-5.9h-3.98c-.18-.03-.36.1-.38.28,0,.03,0,.07,0,.1v5.51h-2.67v-6.03c0-1.72.72-2.42,2.4-2.42h5.94c1.09.09,2.04-.73,2.12-1.81,0-.1,0-.21,0-.31.06-1.06-.75-1.96-1.81-2.02-.11,0-.21,0-.32,0h-8.36v-2.66h8.27Z"/><path id="Tracé_22" class="cls-2" d="m129.25,119.38v2.66h-4.45v12.59h-2.69v-12.59h-4.45v-2.66h11.59Z"/></g></svg>